<svg width="48" height="48" viewBox="0 0 48 48" fill="none" xmlns="http://www.w3.org/2000/svg">
    <g>
        <path d="M32.25 36.5009C32.6642 36.5009 33 36.1651 33 35.7509C33 35.3366 32.6642 35.0009 32.25 35.0009H15.75C15.3358 35.0009 15 35.3366 15 35.7509C15 36.1651 15.3358 36.5009 15.75 36.5009H32.25Z" fill="currentColor"/>
        <path d="M29.25 40.0009C29.6642 40.0009 30 40.3366 30 40.7509C30 41.1651 29.6642 41.5009 29.25 41.5009H18.75C18.3358 41.5009 18 41.1651 18 40.7509C18 40.3366 18.3358 40.0009 18.75 40.0009H29.25Z" fill="currentColor"/>
        <path fill-rule="evenodd" clip-rule="evenodd" d="M8 48.0009C6.89543 48.0009 6 47.1054 6 46.0009V2.00086C6 0.896286 6.89543 0.000854492 8 0.000854492H40C41.1046 0.000854492 42 0.896285 42 2.00085V46.0009C42 47.1054 41.1046 48.0009 40 48.0009H8ZM7.5 2.00086C7.5 1.72471 7.72386 1.50085 8 1.50085H40C40.2761 1.50085 40.5 1.72471 40.5 2.00085V46.0009C40.5 46.277 40.2761 46.5009 40 46.5009H8C7.72386 46.5009 7.5 46.277 7.5 46.0009V2.00086Z" fill="currentColor"/>
        <path fill-rule="evenodd" clip-rule="evenodd" d="M30.5723 24.9937V27.3276H29.4059V28.4941H28.2386V31.9944H27.0722V30.8279H25.9058V31.9944H24.7394V29.6606H25.9058V28.4941H27.0722V26.1611H25.9058V22.6608H23.573V26.1611H16.5728V24.9937H15.4064V23.8273H17.1565V22.6608H18.3229V23.8273H20.0729V20.3278H24.7394V19.1604H23.573V17.994H20.0729V19.1604H18.9065V17.994H17.7392V19.1604H15.4064V20.3278H14.24V19.1604H13.0736V16.8275H14.24V15.661H15.4064V16.8275H16.5728V15.661H18.9065V14.4945H17.7392V13.3272H16.5728V12.1607H14.24V10.9942H15.4064V8.66123H14.24V7.49385H16.5728V6.32737H17.7392V7.49385H18.9065V8.66123H17.7392V9.82771H18.9065V10.9942H20.0729V12.1607H21.2393V10.9942H22.4057V9.82771H24.7394V8.66123H22.4057V7.49385H23.573V6.32737H27.0722V7.49385H28.2386V6.32737H29.4059V5.16089H30.5723V10.9942H29.4059V9.82771H28.2386V10.9942H29.4059V12.1607H28.2386V13.3272H27.0722V14.4945H28.2386V15.661H27.0722V19.1604H28.2386V20.3278H29.4059V21.4943H30.5723V20.3278H29.4059V17.994H30.5723V16.8275H31.7387V17.994H32.9051V19.1604H31.7387V21.4943H32.9051V22.6608H34.0715V23.8273H31.7387V24.9937H30.5723V23.8273H29.4059V22.6608H28.2386V24.9937H30.5723ZM27.0722 5.16089H23.573V3.99442H27.0722V5.16089ZM20.0729 8.66033H21.2393V9.82681H20.0729V8.66033ZM28.2395 17.994L28.2386 15.661H29.405V17.994H28.2395ZM29.4059 15.6601V12.1607H30.5723V15.6601H29.4059ZM32.9051 17.994V15.661H34.0715V17.994H32.9051ZM31.7387 15.6601V12.1607H32.9051V15.661L31.7387 15.6601ZM32.906 10.9942H34.0724V12.1607H32.9051L32.906 10.9942ZM32.9051 6.32737H34.0715V9.82771H32.9051L32.906 10.9942H31.7387V5.16089H32.9051V6.32737ZM30.5723 10.9942H31.7387V12.1607H30.5723V10.9942ZM25.9058 27.3276V28.4941H24.7394V27.3276H25.9058ZM16.5728 26.162V27.3285H15.4064V26.162H16.5728Z" fill="currentColor"/>
    </g>
</svg>
