<svg width="48" height="48" viewBox="0 0 48 48" fill="none" xmlns="http://www.w3.org/2000/svg">
    <path d="M33.25 15.0009C33.6642 15.0009 34 15.3366 34 15.7509C34 16.1651 33.6642 16.5009 33.25 16.5009H26.75C26.3358 16.5009 26 16.1651 26 15.7509C26 15.3366 26.3358 15.0009 26.75 15.0009H33.25Z" fill="currentColor"/>
    <path d="M32.25 23.0009C32.6642 23.0009 33 23.3366 33 23.7509C33 24.1651 32.6642 24.5009 32.25 24.5009H26.75C26.3358 24.5009 26 24.1651 26 23.7509C26 23.3366 26.3358 23.0009 26.75 23.0009H32.25Z" fill="currentColor"/>
    <path d="M38.25 20.5009C38.6642 20.5009 39 20.1651 39 19.7509C39 19.3366 38.6642 19.0009 38.25 19.0009H26.75C26.3358 19.0009 26 19.3366 26 19.7509C26 20.1651 26.3358 20.5009 26.75 20.5009H38.25Z" fill="currentColor"/>
    <path fill-rule="evenodd" clip-rule="evenodd" d="M2 37.0009C0.895431 37.0009 0 36.1054 0 35.0009V8.00085C0 6.89629 0.895431 6.00085 2 6.00085H42C43.1046 6.00085 44 6.89629 44 8.00085V10.0009H46C47.1046 10.0009 48 10.8963 48 12.0009V39.0009C48 40.1054 47.1046 41.0009 46 41.0009H6C4.89543 41.0009 4 40.1054 4 39.0009V37.0009H2ZM1.5 8.00085C1.5 7.72471 1.72386 7.50085 2 7.50085H42C42.2761 7.50085 42.5 7.72471 42.5 8.00085V35.0009C42.5 35.277 42.2761 35.5009 42 35.5009H2C1.72386 35.5009 1.5 35.277 1.5 35.0009V8.00085ZM5.5 37.0009V39.5009H46C46.2761 39.5009 46.5 39.277 46.5 39.0009V12.0009C46.5 11.7247 46.2761 11.5009 46 11.5009H44V35.0009C44 36.1054 43.1046 37.0009 42 37.0009H5.5Z" fill="currentColor"/>
    <path fill-rule="evenodd" clip-rule="evenodd" d="M18.767 27.4995V29.3332H17.8508V30.2497H16.9338V33H16.0175V32.0835H15.1012V33H14.185V31.1663H15.1012V30.2497H16.0175V28.4167H15.1012V25.6664H13.2687V28.4167H7.76964V27.4995H6.85336V26.583H8.22813V25.6664H9.1444V26.583H10.5192V23.8334H14.185V22.9162H13.2687V21.9996H10.5192V22.9162H9.60289V21.9996H8.68591V22.9162H6.85336V23.8334H5.93709V22.9162H5.02081V21.0831H5.93709V20.1666H6.85336V21.0831H7.76964V20.1666H9.60289V19.2501H8.68591V18.3329H7.76964V17.4163H5.93709V16.4998H6.85336V14.6668H5.93709V13.7496H7.76964V12.833H8.68591V13.7496H9.60289V14.6668H8.68591V15.5833H9.60289V16.4998H10.5192V17.4163H11.4354V16.4998H12.3517V15.5833H14.185V14.6668H12.3517V13.7496H13.2687V12.833H16.0175V13.7496H16.9338V12.833H17.8508V11.9165H18.767V16.4998H17.8508V15.5833H16.9338V16.4998H17.8508V17.4163H16.9338V18.3329H16.0175V19.2501H16.9338V20.1666H16.0175V22.9162H16.9338V23.8334H17.8508V24.7499H18.767V23.8334H17.8508V21.9996H18.767V21.0831H19.6833V21.9996H20.5996V22.9162H19.6833V24.7499H20.5996V25.6664H21.5159V26.583H19.6833V27.4995H18.767V26.583H17.8508V25.6664H16.9338V27.4995H18.767ZM16.0175 11.9165H13.2687V11H16.0175V11.9165ZM10.5192 14.6661H11.4354V15.5826H10.5192V14.6661ZM16.9345 21.9996L16.9338 20.1666H17.8501V21.9996H16.9345ZM17.8508 20.1659V17.4163H18.767V20.1659H17.8508ZM20.5996 21.9996V20.1666H21.5159V21.9996H20.5996ZM19.6833 20.1659V17.4163H20.5996V20.1666L19.6833 20.1659ZM20.6003 16.4998H21.5166V17.4163H20.5996L20.6003 16.4998ZM20.5996 12.833H21.5159V15.5833H20.5996L20.6003 16.4998H19.6833V11.9165H20.5996V12.833ZM18.767 16.4998H19.6833V17.4163H18.767V16.4998ZM15.1012 29.3332V30.2497H14.185V29.3332H15.1012ZM7.76964 28.4174V29.3339H6.85336V28.4174H7.76964Z" fill="currentColor"/>
</svg>
