<svg width="48" height="48" viewBox="0 0 48 48" fill="none" xmlns="http://www.w3.org/2000/svg">
<path fill-rule="evenodd" clip-rule="evenodd" d="M3.57447 0.00088501H44.4255C46.3997 0.00088501 48 1.60123 48 3.57535V19.9158C48 21.8899 46.3997 23.4902 44.4255 23.4902H26.0426V28.7171H28.8088C29.5549 28.7171 30.2704 29.0134 30.798 29.541C31.3255 30.0686 31.6219 30.7841 31.6219 31.5302C31.6219 32.2674 31.3648 32.9732 30.902 33.4934C30.9714 33.5496 31.0378 33.6089 31.101 33.6712C31.6456 34.2072 31.9146 34.9194 31.9146 35.6245C31.9146 36.3296 31.6456 37.0418 31.101 37.5778C30.9453 37.7311 30.7708 37.8663 30.579 37.9816C30.9914 38.4853 31.1954 39.1048 31.1954 39.7188C31.1954 40.4239 30.9263 41.1361 30.3818 41.6721C30.1309 41.9191 29.8312 42.1194 29.4889 42.2643C29.8068 42.73 29.9643 43.2737 29.9643 43.8132C29.9643 44.5182 29.6953 45.2305 29.1507 45.7665C28.5997 46.3088 27.8132 46.6263 26.8585 46.6263H9.89928C9.46797 47.4256 8.62283 47.9688 7.65082 47.9688H5.10638C3.69629 47.9688 2.55319 46.8257 2.55319 45.4156V31.6605C2.55319 30.2504 3.69629 29.1073 5.10638 29.1073H7.65082C8.73855 29.1073 9.66742 29.7875 10.0353 30.7457L15.7273 26.3329C16.3247 25.7954 17.0894 25.48 17.8927 25.4403C18.7073 25.4001 19.5102 25.6459 20.1626 26.1353L21.9574 27.4814V23.4902H3.57447C1.60035 23.4902 0 21.8899 0 19.9158V3.57535C0 1.60123 1.60034 0.00088501 3.57447 0.00088501ZM3.57447 1.5328C2.4464 1.5328 1.53192 2.44728 1.53192 3.57535V19.9158C1.53192 21.0438 2.4464 21.9583 3.57447 21.9583H44.4255C45.5536 21.9583 46.4681 21.0438 46.4681 19.9158V3.57535C46.4681 2.44728 45.5536 1.5328 44.4255 1.5328H3.57447ZM28.0761 42.9516C27.8471 42.7262 27.4637 42.532 26.8585 42.532H26.0792C25.6562 42.532 25.3132 42.189 25.3132 41.766C25.3132 41.5545 25.399 41.363 25.5376 41.2244C25.5722 41.1897 25.6102 41.1584 25.6509 41.1309C25.7732 41.0482 25.9206 41 26.0792 41H28.0896C28.6948 41 29.0782 40.8057 29.3072 40.5803C29.5426 40.3486 29.6635 40.0373 29.6635 39.7188C29.6635 39.4003 29.5426 39.089 29.3072 38.8573C29.0782 38.6319 28.6948 38.4376 28.0896 38.4376H26.0792C25.6562 38.4376 25.3133 38.0947 25.3133 37.6716C25.3133 37.2486 25.6562 36.9057 26.0792 36.9057H28.8088C29.414 36.9057 29.7974 36.7114 30.0264 36.486C30.2618 36.2543 30.3827 35.943 30.3827 35.6245C30.3827 35.306 30.2618 34.9947 30.0264 34.763C29.7974 34.5376 29.414 34.3433 28.8088 34.3433H26.0792C25.6562 34.3433 25.3133 34.0004 25.3133 33.5773C25.3133 33.1543 25.6562 32.8114 26.0792 32.8114H28.9671C29.5961 32.8114 30.09 32.3212 30.09 31.5302C30.09 31.1904 29.955 30.8645 29.7147 30.6242C29.4745 30.384 29.1486 30.249 28.8088 30.249H23.3601C23.3528 30.2491 23.3454 30.2491 23.338 30.249H19.2554C18.8324 30.249 18.4894 29.906 18.4894 29.483C18.4894 29.06 18.8324 28.7171 19.2554 28.7171H21.0517L19.2434 27.3608C18.8769 27.0859 18.4258 26.9478 17.9683 26.9704C17.5107 26.993 17.0754 27.1748 16.7378 27.4845C16.7223 27.4988 16.7061 27.5124 16.6894 27.5254L10.2128 32.5465V45.0944H26.8585C27.4637 45.0944 27.8471 44.9001 28.0761 44.6747C28.3115 44.443 28.4324 44.1316 28.4324 43.8132C28.4324 43.4947 28.3115 43.1833 28.0761 42.9516ZM4.08511 31.6605C4.08511 31.0964 4.54235 30.6392 5.10638 30.6392H7.65082C8.21486 30.6392 8.6721 31.0964 8.6721 31.6605V45.4156C8.6721 45.9796 8.21486 46.4369 7.65082 46.4369H5.10638C4.54235 46.4369 4.08511 45.9796 4.08511 45.4156V31.6605Z" fill="currentColor"/>
<path d="M12.4448 12.7206L10.9982 12.3645L11.5934 6.81907H17.5079V8.36452H13.1003L12.7989 11.0691C12.9697 10.9681 13.2058 10.8696 13.5071 10.7736C13.8085 10.6726 14.1526 10.6221 14.5393 10.6221C15.0567 10.6221 15.5188 10.708 15.9257 10.8797C16.3376 11.0463 16.6867 11.2913 16.973 11.6145C17.2593 11.9327 17.4778 12.3216 17.6285 12.7812C17.7791 13.2357 17.8545 13.7484 17.8545 14.3191C17.8545 14.8292 17.7791 15.3064 17.6285 15.7509C17.4828 16.1953 17.2618 16.5867 16.9654 16.9251C16.6691 17.2635 16.2949 17.5287 15.8428 17.7206C15.3958 17.9075 14.8658 18.0009 14.253 18.0009C13.796 18.0009 13.3564 17.9352 12.9345 17.8039C12.5176 17.6676 12.1434 17.4681 11.8119 17.2054C11.4804 16.9378 11.2142 16.6095 11.0132 16.2206C10.8123 15.8266 10.6968 15.3746 10.6667 14.8645H12.4448C12.49 15.2231 12.5879 15.5287 12.7386 15.7812C12.8943 16.0287 13.1003 16.2181 13.3564 16.3494C13.6126 16.4807 13.909 16.5463 14.2455 16.5463C14.5519 16.5463 14.8156 16.4933 15.0366 16.3872C15.2576 16.2761 15.441 16.1196 15.5866 15.9176C15.7373 15.7105 15.8478 15.4681 15.9181 15.1903C15.9935 14.9125 16.0312 14.6044 16.0312 14.266C16.0312 13.9428 15.9885 13.6474 15.9031 13.3797C15.8227 13.112 15.6996 12.8797 15.5339 12.6827C15.3732 12.4857 15.1697 12.3342 14.9236 12.2282C14.6775 12.117 14.3937 12.0615 14.0722 12.0615C13.6402 12.0615 13.3087 12.1246 13.0777 12.2509C12.8516 12.3771 12.6407 12.5337 12.4448 12.7206Z" fill="currentColor"/>
<path d="M27.076 11.41V13.213C27.076 14.0766 26.9906 14.814 26.8198 15.4251C26.6541 16.0312 26.413 16.5236 26.0965 16.9024C25.7801 17.2812 25.4008 17.559 24.9588 17.7357C24.5218 17.9125 24.0321 18.0009 23.4896 18.0009C23.0576 18.0009 22.6558 17.9453 22.2841 17.8342C21.9174 17.7231 21.5859 17.5489 21.2896 17.3115C20.9932 17.0741 20.7396 16.7686 20.5286 16.3948C20.3227 16.016 20.1619 15.564 20.0464 15.0388C19.9359 14.5135 19.8806 13.9049 19.8806 13.213V11.41C19.8806 10.5413 19.966 9.80897 20.1368 9.21301C20.3076 8.612 20.5512 8.12462 20.8676 7.75089C21.1841 7.3721 21.5608 7.09685 21.9978 6.92513C22.4398 6.75341 22.9321 6.66755 23.4745 6.66755C23.9115 6.66755 24.3134 6.72311 24.68 6.83422C25.0517 6.94028 25.3833 7.10947 25.6746 7.34179C25.9709 7.57412 26.2221 7.87715 26.428 8.25089C26.639 8.61957 26.7997 9.06654 26.9102 9.59179C27.0207 10.112 27.076 10.7181 27.076 11.41ZM25.2602 13.4706V11.1372C25.2602 10.6979 25.2351 10.3115 25.1848 9.97816C25.1346 9.63977 25.0593 9.35442 24.9588 9.1221C24.8634 8.88472 24.7428 8.6928 24.5972 8.54634C24.4515 8.39482 24.2857 8.28624 24.0999 8.22058C23.914 8.14987 23.7056 8.11452 23.4745 8.11452C23.1933 8.11452 22.9421 8.17008 22.7211 8.28119C22.5001 8.38725 22.3142 8.55897 22.1636 8.79634C22.0129 9.03371 21.8973 9.34684 21.817 9.73573C21.7416 10.1196 21.704 10.5867 21.704 11.1372V13.4706C21.704 13.915 21.7291 14.3064 21.7793 14.6448C21.8295 14.9832 21.9049 15.2736 22.0053 15.516C22.1058 15.7534 22.2263 15.9504 22.367 16.1069C22.5126 16.2585 22.6784 16.3696 22.8643 16.4403C23.0551 16.511 23.2636 16.5463 23.4896 16.5463C23.7759 16.5463 24.0296 16.4908 24.2506 16.3797C24.4716 16.2686 24.6574 16.0918 24.8081 15.8494C24.9588 15.6019 25.0718 15.2812 25.1472 14.8872C25.2225 14.4933 25.2602 14.0211 25.2602 13.4706Z" fill="currentColor"/>
<path d="M36.6667 16.3948V17.8494H29.3131V16.5994L32.8844 12.6827C33.2762 12.2383 33.5851 11.8544 33.8111 11.5312C34.0372 11.208 34.1954 10.9176 34.2858 10.66C34.3812 10.3973 34.429 10.1423 34.429 9.89482C34.429 9.54634 34.3637 9.24078 34.2331 8.97816C34.1075 8.71048 33.9216 8.50089 33.6755 8.34937C33.4294 8.1928 33.1305 8.11452 32.7789 8.11452C32.3721 8.11452 32.0305 8.20291 31.7542 8.37967C31.478 8.55644 31.2695 8.80139 31.1289 9.11452C30.9882 9.4226 30.9179 9.77614 30.9179 10.1751H29.1021C29.1021 9.53371 29.2478 8.94785 29.5391 8.41755C29.8305 7.8822 30.2524 7.45796 30.8049 7.14482C31.3574 6.82664 32.023 6.66755 32.8015 6.66755C33.5349 6.66755 34.1577 6.79129 34.6701 7.03876C35.1824 7.28624 35.5717 7.63725 35.8379 8.09179C36.1091 8.54634 36.2447 9.08422 36.2447 9.70543C36.2447 10.0489 36.1895 10.3898 36.079 10.7282C35.9685 11.0665 35.8103 11.4049 35.6043 11.7433C35.4034 12.0766 35.1648 12.4125 34.8885 12.7509C34.6123 13.0842 34.3084 13.4226 33.9769 13.766L31.6036 16.3948H36.6667Z" fill="currentColor"/>
</svg>
