<svg width="48" height="48" viewBox="0 0 48 48" fill="none" xmlns="http://www.w3.org/2000/svg">
<path fill-rule="evenodd" clip-rule="evenodd" d="M3.57447 0.00088501H44.4255C46.3997 0.00088501 48 1.60123 48 3.57535V19.9158C48 21.8899 46.3997 23.4902 44.4255 23.4902H26.0426V28.7171H28.8088C29.5549 28.7171 30.2704 29.0134 30.798 29.541C31.3255 30.0686 31.6219 30.7841 31.6219 31.5302C31.6219 32.2674 31.3648 32.9732 30.902 33.4934C30.9714 33.5496 31.0378 33.6089 31.101 33.6712C31.6456 34.2072 31.9146 34.9194 31.9146 35.6245C31.9146 36.3296 31.6456 37.0418 31.101 37.5778C30.9453 37.7311 30.7708 37.8663 30.579 37.9816C30.9914 38.4853 31.1954 39.1048 31.1954 39.7188C31.1954 40.4239 30.9263 41.1361 30.3818 41.6721C30.1309 41.9191 29.8312 42.1194 29.4889 42.2643C29.8068 42.73 29.9643 43.2737 29.9643 43.8132C29.9643 44.5182 29.6953 45.2305 29.1507 45.7665C28.5997 46.3088 27.8132 46.6263 26.8585 46.6263H9.89928C9.46797 47.4256 8.62283 47.9688 7.65082 47.9688H5.10638C3.69629 47.9688 2.55319 46.8257 2.55319 45.4156V31.6605C2.55319 30.2504 3.69629 29.1073 5.10638 29.1073H7.65082C8.73855 29.1073 9.66742 29.7875 10.0353 30.7457L15.7273 26.3329C16.3247 25.7954 17.0894 25.48 17.8927 25.4403C18.7073 25.4001 19.5102 25.6459 20.1626 26.1353L21.9574 27.4814V23.4902H3.57447C1.60035 23.4902 0 21.8899 0 19.9158V3.57535C0 1.60123 1.60034 0.00088501 3.57447 0.00088501ZM3.57447 1.5328C2.4464 1.5328 1.53192 2.44728 1.53192 3.57535V19.9158C1.53192 21.0438 2.4464 21.9583 3.57447 21.9583H44.4255C45.5536 21.9583 46.4681 21.0438 46.4681 19.9158V3.57535C46.4681 2.44728 45.5536 1.5328 44.4255 1.5328H3.57447ZM28.0761 42.9516C27.8471 42.7262 27.4637 42.532 26.8585 42.532H26.0792C25.6562 42.532 25.3132 42.189 25.3132 41.766C25.3132 41.5545 25.399 41.363 25.5376 41.2244C25.5722 41.1897 25.6102 41.1584 25.6509 41.1309C25.7732 41.0482 25.9206 41 26.0792 41H28.0896C28.6948 41 29.0782 40.8057 29.3072 40.5803C29.5426 40.3486 29.6635 40.0373 29.6635 39.7188C29.6635 39.4003 29.5426 39.089 29.3072 38.8573C29.0782 38.6319 28.6948 38.4376 28.0896 38.4376H26.0792C25.6562 38.4376 25.3133 38.0947 25.3133 37.6716C25.3133 37.2486 25.6562 36.9057 26.0792 36.9057H28.8088C29.414 36.9057 29.7974 36.7114 30.0264 36.486C30.2618 36.2543 30.3827 35.943 30.3827 35.6245C30.3827 35.306 30.2618 34.9947 30.0264 34.763C29.7974 34.5376 29.414 34.3433 28.8088 34.3433H26.0792C25.6562 34.3433 25.3133 34.0004 25.3133 33.5773C25.3133 33.1543 25.6562 32.8114 26.0792 32.8114H28.9671C29.5961 32.8114 30.09 32.3212 30.09 31.5302C30.09 31.1904 29.955 30.8645 29.7147 30.6242C29.4745 30.384 29.1486 30.249 28.8088 30.249H23.3601C23.3528 30.2491 23.3454 30.2491 23.338 30.249H19.2554C18.8324 30.249 18.4894 29.906 18.4894 29.483C18.4894 29.06 18.8324 28.7171 19.2554 28.7171H21.0517L19.2434 27.3608C18.8769 27.0859 18.4258 26.9478 17.9683 26.9704C17.5107 26.993 17.0754 27.1748 16.7378 27.4845C16.7223 27.4988 16.7061 27.5124 16.6894 27.5254L10.2128 32.5465V45.0944H26.8585C27.4637 45.0944 27.8471 44.9001 28.0761 44.6747C28.3115 44.443 28.4324 44.1316 28.4324 43.8132C28.4324 43.4947 28.3115 43.1833 28.0761 42.9516ZM4.08511 31.6605C4.08511 31.0964 4.54235 30.6392 5.10638 30.6392H7.65082C8.21486 30.6392 8.6721 31.0964 8.6721 31.6605V45.4156C8.6721 45.9796 8.21486 46.4369 7.65082 46.4369H5.10638C4.54235 46.4369 4.08511 45.9796 4.08511 45.4156V31.6605Z" fill="currentColor"/>
<path d="M28.9396 11.41V13.213C28.9396 14.0766 28.8558 14.814 28.6882 15.4251C28.5256 16.0312 28.289 16.5236 27.9784 16.9024C27.6679 17.2812 27.2958 17.559 26.862 17.7357C26.4332 17.9125 25.9526 18.0009 25.4202 18.0009C24.9963 18.0009 24.602 17.9453 24.2372 17.8342C23.8774 17.7231 23.5521 17.5489 23.2613 17.3115C22.9704 17.0741 22.7215 16.7686 22.5145 16.3948C22.3124 16.016 22.1547 15.564 22.0413 15.0388C21.9329 14.5135 21.8786 13.9049 21.8786 13.213V11.41C21.8786 10.5413 21.9624 9.80897 22.13 9.21301C22.2976 8.612 22.5367 8.12462 22.8472 7.75089C23.1577 7.3721 23.5274 7.09685 23.9563 6.92513C24.39 6.75341 24.8731 6.66755 25.4054 6.66755C25.8343 6.66755 26.2286 6.72311 26.5884 6.83422C26.9532 6.94028 27.2785 7.10947 27.5644 7.34179C27.8552 7.57412 28.1017 7.87715 28.3038 8.25089C28.5108 8.61957 28.6685 9.06654 28.777 9.59179C28.8854 10.112 28.9396 10.7181 28.9396 11.41ZM27.1577 13.4706V11.1372C27.1577 10.6979 27.1331 10.3115 27.0838 9.97816C27.0345 9.63977 26.9606 9.35442 26.862 9.1221C26.7683 8.88472 26.65 8.6928 26.5071 8.54634C26.3641 8.39482 26.2015 8.28624 26.0191 8.22058C25.8367 8.14987 25.6322 8.11452 25.4054 8.11452C25.1294 8.11452 24.8829 8.17008 24.6661 8.28119C24.4492 8.38725 24.2668 8.55897 24.1189 8.79634C23.9711 9.03371 23.8577 9.34684 23.7788 9.73573C23.7049 10.1196 23.6679 10.5867 23.6679 11.1372V13.4706C23.6679 13.915 23.6926 14.3064 23.7418 14.6448C23.7911 14.9832 23.8651 15.2736 23.9637 15.516C24.0622 15.7534 24.1805 15.9504 24.3186 16.1069C24.4615 16.2585 24.6242 16.3696 24.8065 16.4403C24.9938 16.511 25.1984 16.5463 25.4202 16.5463C25.7012 16.5463 25.9501 16.4908 26.167 16.3797C26.3839 16.2686 26.5662 16.0918 26.7141 15.8494C26.862 15.6019 26.9729 15.2812 27.0468 14.8872C27.1208 14.4933 27.1577 14.0211 27.1577 13.4706Z" fill="currentColor"/>
<path d="M36 6.78119V17.8494H34.2181V8.94785L31.5786 9.86452V8.35695L35.7856 6.78119H36Z" fill="currentColor"/>
<path fill-rule="evenodd" clip-rule="evenodd" d="M19.8225 13.8683V15.3228H18.4769V17.8001H16.695V15.3228H12.0591L12 14.2243L16.6432 6.76977H18.4769V13.8683H19.8225ZM13.8558 13.8683L16.6786 9.232V13.8683H13.8558Z" fill="currentColor"/>
</svg>
