<svg width="48" height="48" viewBox="0 0 48 48" fill="none" xmlns="http://www.w3.org/2000/svg">
<path fill-rule="evenodd" clip-rule="evenodd" d="M20.2681 33.5259C20.0145 31.7187 19.1804 30.0303 17.875 28.725C16.2904 27.1403 14.1411 26.25 11.9 26.25C9.65892 26.25 7.50963 27.1403 5.92494 28.725C4.34026 30.3097 3.45 32.459 3.45 34.7C3.45 35.8097 3.66856 36.9085 4.09321 37.9337C4.51787 38.9589 5.14029 39.8904 5.92494 40.6751C6.7096 41.4597 7.64112 42.0822 8.66632 42.5068C9.69152 42.9315 10.7903 43.15 11.9 43.15C13.0097 43.15 14.1085 42.9315 15.1337 42.5068C16.1589 42.0822 17.0904 41.4597 17.875 40.6751C18.6597 39.8904 19.2821 38.9589 19.7068 37.9337C20.0714 37.0533 20.2841 36.1187 20.3369 35.1694L21.3831 34.6448C22.1955 34.2385 23.0917 34.0268 24 34.0268C24.9083 34.0268 25.8045 34.2385 26.6169 34.6448L27.663 35.1694C27.7781 37.2394 28.6513 39.2014 30.1249 40.6751C31.7096 42.2598 33.8589 43.15 36.1 43.15C38.3411 43.15 40.4904 42.2598 42.0751 40.6751C43.6597 39.0904 44.55 36.9411 44.55 34.7C44.55 32.459 43.6597 30.3097 42.0751 28.725C40.4904 27.1403 38.3411 26.25 36.1 26.25C33.8589 26.25 31.7096 27.1403 30.1249 28.725C28.8196 30.0303 27.9855 31.7187 27.7319 33.5259L27.2879 33.3032C26.2671 32.7926 25.1414 32.5268 24 32.5268C22.8586 32.5268 21.7322 32.793 20.7114 33.3036L20.2681 33.5259ZM11.9 27.75C10.0567 27.75 8.28898 28.4823 6.98561 29.7856C5.68223 31.089 4.95 32.8568 4.95 34.7C4.95 35.6127 5.12976 36.5165 5.47903 37.3597C5.8283 38.2029 6.34024 38.9691 6.98561 39.6144C7.63097 40.2598 8.39713 40.7717 9.24035 41.121C10.0836 41.4703 10.9873 41.65 11.9 41.65C12.8127 41.65 13.7164 41.4703 14.5596 41.121C15.4029 40.7717 16.169 40.2598 16.8144 39.6144C17.4598 38.9691 17.9717 38.2029 18.321 37.3597C18.6683 36.5211 18.848 35.6227 18.85 34.7152C18.8498 34.7054 18.8498 34.6956 18.85 34.6859C18.8462 32.8477 18.1144 31.0857 16.8144 29.7856C15.511 28.4823 13.7433 27.75 11.9 27.75ZM29.15 34.7158C29.1502 34.7056 29.1502 34.6954 29.15 34.6853C29.1539 32.8473 29.8857 31.0855 31.1856 29.7856C32.489 28.4823 34.2567 27.75 36.1 27.75C37.9432 27.75 39.711 28.4823 41.0144 29.7856C42.3178 31.089 43.05 32.8568 43.05 34.7C43.05 36.5433 42.3178 38.3111 41.0144 39.6144C39.711 40.9178 37.9432 41.65 36.1 41.65C34.2567 41.65 32.489 40.9178 31.1856 39.6144C29.8859 38.3148 29.1542 36.5534 29.15 34.7158Z" fill="currentColor"/>
<path fill-rule="evenodd" clip-rule="evenodd" d="M40.9602 14.7505L42.1855 19.65H46C46.4142 19.65 46.75 19.9858 46.75 20.4C46.75 20.8142 46.4142 21.15 46 21.15L45.9983 21.15H41.6157C41.6048 21.1503 41.594 21.1503 41.5831 21.15H6.41687C6.40603 21.1503 6.39516 21.1503 6.38426 21.15H2C1.58579 21.15 1.25 20.8142 1.25 20.4C1.25 19.9858 1.58579 19.65 2 19.65L5.81448 19.65L7.03204 14.7817C7.62285 12.4152 8.08236 10.5746 8.6232 9.15478C9.17395 7.70895 9.83653 6.62089 10.8794 5.80604C11.9225 4.99232 13.1393 4.61351 14.6754 4.42995C16.1812 4.25002 18.0744 4.25002 20.507 4.25003H27.493C29.9256 4.25002 31.8188 4.25002 33.3246 4.42995C34.8607 4.61351 36.077 4.99197 37.1201 5.80568C38.1632 6.62064 38.8256 7.7092 39.376 9.1549C39.9142 10.5684 40.372 12.3991 40.9602 14.7505ZM7.36068 19.65H40.6393L39.505 15.1145C38.9084 12.7292 38.4733 10.9995 37.9742 9.68861C37.4774 8.38382 36.9444 7.57194 36.1966 6.98768C35.4491 6.40488 34.5327 6.085 33.1466 5.91936C31.75 5.75246 29.9607 5.75002 27.493 5.75003H20.507C18.0393 5.75002 16.25 5.75246 14.8534 5.91936C13.467 6.08503 12.5498 6.40552 11.8021 6.98873C11.0547 7.57298 10.5218 8.38444 10.0249 9.68874C9.52336 11.0055 9.08653 12.7451 8.48722 15.1456L7.36068 19.65Z" fill="currentColor"/>
</svg>
