<svg width="48" height="48" viewBox="0 0 48 48" fill="none" xmlns="http://www.w3.org/2000/svg">
<path fill-rule="evenodd" clip-rule="evenodd" d="M47.501 3.2204C47.7939 3.5133 47.7939 3.98817 47.501 4.28106L42.3744 9.40767L47.501 14.5343C47.7939 14.8272 47.7939 15.302 47.501 15.5949C47.2081 15.8878 46.7333 15.8878 46.4404 15.5949L41.3138 10.4683L36.1873 15.5948C35.8944 15.8877 35.4195 15.8877 35.1267 15.5948C34.8338 15.3019 34.8338 14.827 35.1267 14.5341L40.2531 9.40767L35.1267 4.28122C34.8338 3.98833 34.8338 3.51345 35.1267 3.22056C35.4195 2.92767 35.8944 2.92767 36.1873 3.22056L41.3138 8.34701L46.4404 3.2204C46.7333 2.92751 47.2081 2.92751 47.501 3.2204Z" fill="currentColor"/>
<path fill-rule="evenodd" clip-rule="evenodd" d="M34 9.75049C34 9.33627 33.6642 9.00049 33.25 9.00049H2C0.895432 9.00049 0 9.89592 0 11.0005V41.0005C0 42.1051 0.895431 43.0005 2 43.0005H43C44.1046 43.0005 45 42.1051 45 41.0005V19.7495C45 19.3353 44.6642 18.9995 44.25 18.9995C43.8358 18.9995 43.5 19.3353 43.5 19.7495V41.0005C43.5 41.2766 43.2761 41.5005 43 41.5005H23V39.5005C23 34.8061 19.1944 31.0005 14.5 31.0005C9.80558 31.0005 6 34.8061 6 39.5005V41.5005H2C1.72386 41.5005 1.5 41.2766 1.5 41.0005V11.0005C1.5 10.7243 1.72386 10.5005 2 10.5005H33.25C33.6642 10.5005 34 10.1647 34 9.75049ZM21.5 39.5005V41.5005H7.5V39.5005C7.5 35.6345 10.634 32.5005 14.5 32.5005C18.366 32.5005 21.5 35.6345 21.5 39.5005Z" fill="currentColor"/>
<path fill-rule="evenodd" clip-rule="evenodd" d="M20 24.5005C20 27.5381 17.5376 30.0005 14.5 30.0005C11.4624 30.0005 9 27.5381 9 24.5005C9 21.4629 11.4624 19.0005 14.5 19.0005C17.5376 19.0005 20 21.4629 20 24.5005ZM18.5 24.5005C18.5 26.7096 16.7091 28.5005 14.5 28.5005C12.2909 28.5005 10.5 26.7096 10.5 24.5005C10.5 22.2913 12.2909 20.5005 14.5 20.5005C16.7091 20.5005 18.5 22.2913 18.5 24.5005Z" fill="currentColor"/>
<path d="M35 20.2505C35 19.8363 34.6642 19.5005 34.25 19.5005H26.75C26.3358 19.5005 26 19.8363 26 20.2505C26 20.6647 26.3358 21.0005 26.75 21.0005H34.25C34.6642 21.0005 35 20.6647 35 20.2505Z" fill="currentColor"/>
<path d="M39.25 25.0005C39.6642 25.0005 40 24.6647 40 24.2505C40 23.8363 39.6642 23.5005 39.25 23.5005H26.75C26.3358 23.5005 26 23.8363 26 24.2505C26 24.6647 26.3358 25.0005 26.75 25.0005H39.25Z" fill="currentColor"/>
</svg>
