<svg width="48" height="48" viewBox="0 0 48 48" fill="none" xmlns="http://www.w3.org/2000/svg">
<g clip-path="url(#clip0_100_834)">
<path d="M15 40.0009C15 39.4486 15.4477 39.0009 16 39.0009H19C19.5523 39.0009 20 39.4486 20 40.0009V43.0009C20 43.5532 19.5523 44.0009 19 44.0009H16C15.4477 44.0009 15 43.5532 15 43.0009V40.0009Z" fill="currentColor"/>
<path d="M21.5 40.0009C21.5 39.4486 21.9477 39.0009 22.5 39.0009H25.5C26.0523 39.0009 26.5 39.4486 26.5 40.0009V43.0009C26.5 43.5532 26.0523 44.0009 25.5 44.0009H22.5C21.9477 44.0009 21.5 43.5532 21.5 43.0009V40.0009Z" fill="currentColor"/>
<path d="M29 39.0009C28.4477 39.0009 28 39.4486 28 40.0009V43.0009C28 43.5532 28.4477 44.0009 29 44.0009H32C32.5523 44.0009 33 43.5532 33 43.0009V40.0009C33 39.4486 32.5523 39.0009 32 39.0009H29Z" fill="currentColor"/>
<path fill-rule="evenodd" clip-rule="evenodd" d="M15 0.000915527C12.7909 0.000915527 11 1.79178 11 4.00091V44.0009C11 46.2101 12.7909 48.0009 15 48.0009H33C35.2091 48.0009 37 46.2101 37 44.0009V4.00092C37 1.79178 35.2091 0.000915527 33 0.000915527H15ZM30 1.50092C29.4477 1.50092 29 1.94863 29 2.50092V3.00092C29 3.5532 28.5523 4.00092 28 4.00092H20C19.4477 4.00092 19 3.5532 19 3.00092V2.50092C19 1.94863 18.5523 1.50092 18 1.50092H15C13.6193 1.50092 12.5 2.6202 12.5 4.00091V44.0009C12.5 45.3816 13.6193 46.5009 15 46.5009H33C34.3807 46.5009 35.5 45.3816 35.5 44.0009V4.00092C35.5 2.6202 34.3807 1.50092 33 1.50092H30Z" fill="currentColor"/>
<path d="M24 14.5001C24.7956 14.5001 25.5587 14.8162 26.1213 15.3788C26.6839 15.9414 27 16.7045 27 17.5001V19.5001H21V17.5001C21 16.7045 21.3161 15.9414 21.8787 15.3788C22.4413 14.8162 23.2044 14.5001 24 14.5001ZM28.5 19.5001V17.5001C28.5 16.3066 28.0259 15.1621 27.182 14.3181C26.3381 13.4742 25.1935 13.0001 24 13.0001C22.8065 13.0001 21.6619 13.4742 20.818 14.3181C19.9741 15.1621 19.5 16.3066 19.5 17.5001V19.5001C18.7044 19.5001 17.9413 19.8162 17.3787 20.3788C16.8161 20.9414 16.5 21.7045 16.5 22.5001V30.0001C16.5 30.7958 16.8161 31.5588 17.3787 32.1214C17.9413 32.6841 18.7044 33.0001 19.5 33.0001H28.5C29.2957 33.0001 30.0587 32.6841 30.6213 32.1214C31.1839 31.5588 31.5 30.7958 31.5 30.0001V22.5001C31.5 21.7045 31.1839 20.9414 30.6213 20.3788C30.0587 19.8162 29.2957 19.5001 28.5 19.5001ZM19.5 21.0001H28.5C28.8978 21.0001 29.2794 21.1582 29.5607 21.4395C29.842 21.7208 30 22.1023 30 22.5001V30.0001C30 30.3979 29.842 30.7795 29.5607 31.0608C29.2794 31.3421 28.8978 31.5001 28.5 31.5001H19.5C19.1022 31.5001 18.7206 31.3421 18.4393 31.0608C18.158 30.7795 18 30.3979 18 30.0001V22.5001C18 22.1023 18.158 21.7208 18.4393 21.4395C18.7206 21.1582 19.1022 21.0001 19.5 21.0001Z" fill="currentColor"/>
</g>
<defs>
<clipPath id="clip0_100_834">
<rect width="48" height="48" fill="white" transform="translate(0 0.00088501)"/>
</clipPath>
</defs>
</svg>
