<svg width="48" height="48" viewBox="0 0 48 48" fill="none" xmlns="http://www.w3.org/2000/svg">
<path fill-rule="evenodd" clip-rule="evenodd" d="M28.5 17.5001V19.5001C29.2957 19.5001 30.0587 19.8162 30.6213 20.3788C31.1839 20.9414 31.5 21.7045 31.5 22.5001V30.0001C31.5 30.7958 31.1839 31.5588 30.6213 32.1214C30.0587 32.6841 29.2957 33.0001 28.5 33.0001H19.5C18.7044 33.0001 17.9413 32.6841 17.3787 32.1214C16.8161 31.5588 16.5 30.7958 16.5 30.0001V22.5001C16.5 21.7045 16.8161 20.9414 17.3787 20.3788C17.9413 19.8162 18.7044 19.5001 19.5 19.5001V17.5001C19.5 16.3066 19.9741 15.1621 20.818 14.3181C21.6619 13.4742 22.8065 13.0001 24 13.0001C25.1935 13.0001 26.3381 13.4742 27.182 14.3181C28.0259 15.1621 28.5 16.3066 28.5 17.5001ZM26.1213 15.3788C25.5587 14.8162 24.7957 14.5001 24 14.5001C23.2043 14.5001 22.4413 14.8162 21.8787 15.3788C21.3161 15.9414 21 16.7045 21 17.5001V19.5001H27V17.5001C27 16.7045 26.6839 15.9414 26.1213 15.3788ZM28.5 21.0001H19.5C19.1022 21.0001 18.7206 21.1582 18.4393 21.4395C18.158 21.7208 18 22.1023 18 22.5001V30.0001C18 30.3979 18.158 30.7795 18.4393 31.0608C18.7206 31.3421 19.1022 31.5001 19.5 31.5001H28.5C28.8978 31.5001 29.2794 31.3421 29.5607 31.0608C29.842 30.7795 30 30.3979 30 30.0001V22.5001C30 22.1023 29.842 21.7208 29.5607 21.4395C29.2794 21.1582 28.8978 21.0001 28.5 21.0001Z" fill="currentColor"/>
<path fill-rule="evenodd" clip-rule="evenodd" d="M23.2528 42.6781C23.7319 42.8949 24.2681 42.8949 24.7473 42.6782C28.5465 40.9605 40 34.6792 40 21.0714V13.5141C40 12.6226 39.4089 11.8418 38.5582 11.575C36.2453 10.8494 33.9755 9.99148 31.76 9.00534C29.4561 8.00839 27.2128 6.87741 25.0416 5.6183C24.3977 5.24494 23.6023 5.24494 22.9584 5.6183C20.7872 6.87741 18.5439 8.00839 16.24 9.00534C14.0245 9.99148 11.7547 10.8494 9.4418 11.575C8.59113 11.8418 8 12.6226 8 13.5141V21.0714C8 34.6669 19.4536 40.9588 23.2528 42.6781ZM38.5 21.0714C38.5 27.9035 35.4146 32.7434 31.9627 36.0481C29.036 38.85 25.8739 40.5159 24.2021 41.2784C24.0732 41.3372 23.9271 41.3372 23.7982 41.2783C22.1269 40.5153 18.9645 38.8468 16.0376 36.0434C12.5852 32.7365 9.5 27.8966 9.5 21.0714V13.497C9.5 13.2774 9.64342 13.0836 9.85304 13.018C12.2313 12.2735 14.5651 11.3924 16.8428 10.3789C19.2106 9.35396 21.5159 8.19068 23.7466 6.89518C23.9033 6.80421 24.0967 6.80421 24.2534 6.89518C26.4841 8.19067 28.7893 9.35395 31.1571 10.3789C33.4349 11.3924 35.7687 12.2735 38.147 13.018C38.3566 13.0836 38.5 13.2774 38.5 13.497V21.0714Z" fill="currentColor"/>
<path fill-rule="evenodd" clip-rule="evenodd" d="M23.2399 47.6719C23.7242 47.8898 24.2758 47.8898 24.7602 47.672C29.3222 45.6207 44 37.7044 44 20.3003V10.3537C44 9.46418 43.4118 8.68412 42.5626 8.41946C39.5453 7.47908 36.5858 6.35696 33.7 5.05896C30.7304 3.76041 27.8413 2.28184 25.0485 0.631443C24.402 0.249399 23.598 0.249398 22.9515 0.631442C20.1587 2.28184 17.2696 3.76041 14.3 5.05896C11.4142 6.35696 8.45474 7.47908 5.43742 8.41946C4.58823 8.68412 4 9.46418 4 10.3537V20.3003C4 37.6887 18.678 45.6189 23.2399 47.6719ZM42.5 20.3003C42.5 29.07 38.576 35.2821 34.207 39.5088C30.3883 43.2033 26.256 45.3494 24.2021 46.2782C24.0735 46.3363 23.9268 46.3363 23.7982 46.2781C21.7449 45.3488 17.6123 43.1993 13.7932 39.5027C9.42376 35.2735 5.5 29.0613 5.5 20.3003V10.3399C5.5 10.1201 5.64354 9.92629 5.85337 9.86098C8.93632 8.90149 11.96 7.75588 14.9081 6.43017C17.9413 5.10351 20.8918 3.59254 23.7436 1.90569C23.9017 1.81216 24.0983 1.81216 24.2564 1.90569C27.1082 3.59254 30.0587 5.1035 33.0918 6.43016C36.04 7.75587 39.0637 8.90149 42.1466 9.86098C42.3565 9.92629 42.5 10.1201 42.5 10.3399V20.3003Z" fill="currentColor"/>
</svg>
