<svg width="48" height="48" viewBox="0 0 48 48" fill="none" xmlns="http://www.w3.org/2000/svg">
<path fill-rule="evenodd" clip-rule="evenodd" d="M45 9.99988V5.99988C45 4.89531 44.1046 3.99988 43 3.99988H2C0.89543 3.99988 0 4.89531 0 5.99988V41.9999C0 43.1044 0.895431 43.9999 2 43.9999H43.1687C44.2051 43.9999 45.0699 43.2081 45.161 42.1757L47.808 12.1757C47.9112 11.0063 46.9897 9.99988 45.8158 9.99988H45ZM43.5 5.99988C43.5 5.72374 43.2761 5.49988 43 5.49988H2C1.72386 5.49988 1.5 5.72374 1.5 5.99988V25.4999L2.85094 8.83825C2.93514 7.79976 3.8025 6.99988 4.8444 6.99988H20.1716C20.702 6.99988 21.2107 7.21059 21.5858 7.58566L24 9.99988H43.5V5.99988ZM20.5251 8.64632C20.4314 8.55256 20.3042 8.49988 20.1716 8.49988H4.8444C4.58393 8.49988 4.36709 8.69985 4.34604 8.95947L1.67036 41.9595C1.64676 42.2506 1.87665 42.4999 2.16873 42.4999H43.1687C43.4278 42.4999 43.644 42.3019 43.6668 42.0438L46.3138 12.0438C46.3396 11.7515 46.1092 11.4999 45.8158 11.4999H23.3787L20.5251 8.64632Z" fill="currentColor"/>
<path fill-rule="evenodd" clip-rule="evenodd" d="M30.3972 33.4994V35.6665H29.3158V36.7497H28.2336V40H27.1522V38.9168H26.0708V40H24.9894V37.8328H26.0708V36.7497H27.1522V34.5834H26.0708V31.3331H23.908V34.5834H17.4178V33.4994H16.3364V32.4162H17.959V31.3331H19.0404V32.4162H20.6629V29.1667H24.9894V28.0827H23.908V26.9996H20.6629V28.0827H19.5815V26.9996H18.4992V28.0827H16.3364V29.1667H15.255V28.0827H14.1736V25.9164H15.255V24.8333H16.3364V25.9164H17.4178V24.8333H19.5815V23.7501H18.4992V22.6661H17.4178V21.583H15.255V20.4998H16.3364V18.3335H15.255V17.2495H17.4178V16.1663H18.4992V17.2495H19.5815V18.3335H18.4992V19.4166H19.5815V20.4998H20.6629V21.583H21.7443V20.4998H22.8257V19.4166H24.9894V18.3335H22.8257V17.2495H23.908V16.1663H27.1522V17.2495H28.2336V16.1663H29.3158V15.0832H30.3972V20.4998H29.3158V19.4166H28.2336V20.4998H29.3158V21.583H28.2336V22.6661H27.1522V23.7501H28.2336V24.8333H27.1522V28.0827H28.2336V29.1667H29.3158V30.2499H30.3972V29.1667H29.3158V26.9996H30.3972V25.9164H31.4787V26.9996H32.5601V28.0827H31.4787V30.2499H32.5601V31.3331H33.6415V32.4162H31.4787V33.4994H30.3972V32.4162H29.3158V31.3331H28.2336V33.4994H30.3972ZM27.1522 15.0832H23.908V14H27.1522V15.0832ZM20.6629 18.3326H21.7443V19.4158H20.6629V18.3326ZM28.2344 26.9996L28.2336 24.8333H29.315L29.3158 26.9996H28.2344ZM29.3158 24.8324V21.583H30.3972V24.8324H29.3158ZM32.5601 26.9996V24.8333H33.6415V26.9996H32.5601ZM31.4787 24.8324V21.583H32.5601V24.8333L31.4787 24.8324ZM32.5609 20.4998H33.6423V21.583H32.5601L32.5609 20.4998ZM32.5601 16.1663H33.6415V19.4166H32.5601L32.5609 20.4998H31.4787V15.0832H32.5601V16.1663ZM30.3972 20.4998H31.4787V21.583H30.3972V20.4998ZM26.0708 35.6665V36.7497H24.9894V35.6665H26.0708ZM17.4178 34.5834V35.6674H16.3364V34.5842L17.4178 34.5834Z" fill="currentColor"/>
</svg>
